<svg version="1.1" id="Layer_1" xmlns:x="ns_extend;" xmlns:i="ns_ai;" xmlns:graph="ns_graphs;" xmlns="http://www.w3.org/2000/svg" xmlns:xlink="http://www.w3.org/1999/xlink" x="0px" y="0px" viewBox="0 0 69.6 55.8" style="enable-background:new 0 0 69.6 55.8;" xml:space="preserve">
 <style type="text/css">
  .st0{fill:#5225B5;}
 </style>
 <metadata>
  <sfw xmlns="ns_sfw;">
   <slices>
   </slices>
   <sliceSourceBounds bottomLeftOrigin="true" height="55.8" width="69.6" x="251" y="35.2">
   </sliceSourceBounds>
  </sfw>
 </metadata>
 <g>
  <path class="st0" d="M30,36.8L30,36.8c0-1.6-1.5-3-3.1-2.9c-1.6,0-2.9,1.4-2.9,3c0,1.6,1.4,3,3.1,3C28.7,39.8,30,38.4,30,36.8
		 M32.9,34.5c0,6.2,0,12.4,0,18.6c0,0.6-0.2,1.2-0.4,1.8c-0.4,1-0.8,1.2-1.8,0.7c-0.3-0.1-0.5-0.3-0.7-0.5
		c-9.2-8-17.8-16.6-25.8-25.7c-3-3.4-4.4-7.4-4.1-11.9C0.4,10,5.6,4,12.9,2.2c4.3-1,8.6-0.9,12.5,1.3c4.8,2.8,7.4,7,7.4,12.5
		C33,22.2,32.9,28.3,32.9,34.5">
  </path>
  <path class="st0" d="M58.3,36c-5.1,0-9.2-4.2-9-9.6c0.2-4.5,4-8.9,9.7-8.7c4.7,0.2,8.7,4.4,8.6,9.4C67.5,32,63.3,36,58.3,36">
  </path>
  <path class="st0" d="M54.8,8.8c0,5-3.8,8.8-8.7,8.8c-4.9,0-8.7-3.8-8.7-8.8c0-5,3.8-8.8,8.8-8.8C51.1,0,54.8,3.8,54.8,8.8">
  </path>
  <path class="st0" d="M44.9,48.4c-3.9,0-6.7-2.9-6.7-6.8c0-3.9,3-6.8,6.9-6.8c3.7,0,6.7,3.1,6.8,6.9C51.9,45.4,48.5,48.7,44.9,48.4">
  </path>
  <path class="st0" d="M41.1,30.7c-2.9,0-5.1-2.2-5.1-5.1c0-2.9,2.3-5.2,5.1-5.2c2.8,0,5.1,2.3,5.1,5.2
		C46.2,28.6,44.1,30.7,41.1,30.7">
  </path>
  <path class="st0" d="M60.3,10.8c0-2.7,1.9-4.6,4.6-4.7c2.6,0,4.7,2.1,4.7,4.7c0,2.6-2.1,4.7-4.8,4.7C62.2,15.6,60.3,13.5,60.3,10.8
		">
  </path>
  <path class="st0" d="M37.9,55.2c-1.3,0-2.2-0.9-2.2-2.2c0-1.3,0.9-2.2,2.2-2.2c1.3,0,2.2,0.9,2.2,2.2
		C40.1,54.3,39.2,55.2,37.9,55.2">
  </path>
 </g>
</svg>